<svg width="15" height="21" viewBox="0 0 15 21" fill="none" xmlns="http://www.w3.org/2000/svg">
<g clip-path="url(#clip0_49_694)">
<path d="M13.3627 7.27623L14.0212 8.26753C14.5308 9.03502 14.4473 9.82988 14.0564 10.4192C13.9066 10.6446 13.7131 10.8376 13.4873 10.9869C13.1643 11.2023 12.7812 11.3217 12.3923 11.3197C12.4168 11.5246 12.4089 11.7321 12.3688 11.9345C12.158 12.9956 11.1438 13.6678 10.0847 13.399C9.98002 13.3724 9.87767 13.3375 9.77862 13.2945C9.85298 13.6372 9.84453 13.9856 9.76099 14.3087C9.62587 14.8275 9.2983 15.2823 8.80295 15.5532C7.78362 16.1112 6.53911 15.653 5.99547 14.6578C5.41922 13.6058 5.3592 13.4642 5.29848 13.3219C5.25345 13.2169 5.20845 13.1124 4.87039 12.4866L4.86385 18.4768C4.86385 18.6413 4.86844 18.7522 4.84952 18.9219C4.79534 19.4035 4.58521 19.8381 4.27652 20.1658C3.47707 21.0142 2.17906 21.0135 1.38091 20.1632C1.06117 19.8232 0.849055 19.3703 0.804666 18.8684C0.793579 18.7431 0.796219 18.6589 0.796219 18.5401L0.803367 11.5788C0.803367 10.5203 0.342622 10.7422 0.145531 9.56883C-0.0025819 8.68978 -0.0423818 7.64755 0.0483052 6.63017C0.131844 5.69304 0.326336 4.77415 0.648066 4.01779C1.21712 2.68194 2.11185 1.65867 3.1782 0.977971C4.03963 0.428489 5.00876 0.10416 6.00461 0.0212705C7.00046 -0.0616189 8.02506 0.0969716 8.99874 0.510728C10.2407 1.03999 11.3938 1.9869 12.2865 3.38542C13.1069 4.67173 13.2465 5.3863 13.518 6.78157L13.5239 6.81094C13.5585 6.98975 13.4913 7.16463 13.3627 7.27623Z" fill="#1E2D24"/>
<path d="M9.0769 7.00453C9.07493 7.12965 9.08572 7.25463 9.10911 7.37756C9.12641 7.47454 9.05131 7.56384 8.95145 7.55999C8.30417 7.53318 7.71688 7.87964 7.40709 8.44225C7.40033 8.45436 7.392 8.46553 7.38232 8.47547C7.35379 8.50477 7.31478 8.52155 7.27389 8.52211C7.23299 8.52266 7.19354 8.50695 7.16423 8.47843C6.94464 8.26505 6.62799 8.0808 6.34719 7.96489C6.31786 7.95273 6.29299 7.93182 6.27596 7.90503C6.25403 7.87058 6.24667 7.82884 6.25551 7.78897C6.26434 7.74911 6.28864 7.71438 6.32307 7.69242C6.95548 7.28983 6.96917 6.81471 6.99431 5.91665L6.99967 5.7514C7.00227 5.66196 6.96931 5.57514 6.90801 5.50996C6.70482 5.29366 6.33598 5.42569 6.32315 5.72663L6.3184 5.89481C6.28034 7.24073 5.36718 7.47746 4.65196 7.66278C4.23028 7.77202 3.89755 7.85832 4.00281 8.20958C4.02806 8.2944 4.08551 8.36598 4.16287 8.40898C4.24017 8.4521 4.3313 8.46319 4.41669 8.43989C5.14349 8.30335 5.95001 8.40638 6.55976 8.84971V8.85036C7.14331 9.27549 7.31652 9.87512 7.23997 10.558C7.20049 10.9087 7.04897 11.0783 6.8176 11.1559C6.61511 11.2237 6.3692 11.2063 6.08565 11.1859C5.55595 11.1486 4.99586 11.1575 4.43261 11.1665C3.68072 11.1786 2.92273 11.1908 2.22169 11.0965C2.03954 11.0722 1.87502 11.0211 1.72869 10.9468C0.791447 10.4716 0.744418 9.00074 0.714527 8.09753C0.651781 6.21126 0.94094 4.21444 2.22315 2.75073C2.64588 2.26826 3.13221 1.86799 3.6239 1.55409C5.80124 0.166418 8.42467 0.540212 10.3406 2.23183C11.474 3.23251 12.1655 4.3686 12.5531 5.81025C12.5928 5.96145 12.4059 6.0709 12.2945 5.95889C11.6891 5.34926 10.7369 5.16748 9.95859 5.56646C9.38827 5.85878 9.08685 6.38658 9.0769 7.00453Z" fill="#D2E2C4"/>
<path d="M8.14977 6.69566C8.14786 6.81892 9.08539 7.25306 9.10911 7.37774C9.11336 7.40051 9.11242 7.42395 9.10638 7.44631C9.10033 7.46866 9.08933 7.48938 9.07418 7.5069C9.05904 7.52443 9.04014 7.53831 9.01889 7.54754C8.99765 7.55676 8.97459 7.56108 8.95145 7.56017C8.30417 7.53337 7.71688 7.87983 7.40709 8.44243C7.40033 8.45455 7.392 8.46572 7.38232 8.47565C7.35379 8.50496 7.31478 8.52174 7.27389 8.52229C7.23299 8.52285 7.19354 8.50714 7.16423 8.47862C6.94464 8.26524 6.62799 8.08098 6.34719 7.96508C6.31786 7.95291 6.29299 7.93201 6.27596 7.90521C6.25403 7.87077 6.24667 7.82903 6.25551 7.78916C6.26434 7.74929 6.28864 7.71457 6.32307 7.69261C6.95548 7.29002 6.96917 6.8149 6.99431 5.91684L6.99967 5.75159C7.00227 5.66215 6.96931 5.57533 6.90801 5.51015C6.70482 5.29385 6.33598 5.42588 6.32315 5.72682L6.3184 5.89499C6.28034 7.24092 5.36718 7.47765 4.65196 7.66296C4.23028 7.77221 3.89755 7.85851 4.00281 8.20976C4.02806 8.29459 4.08551 8.36617 4.16287 8.40917C4.24017 8.45228 4.3313 8.46338 4.41669 8.44008C5.14349 8.30354 5.33193 8.40657 5.94172 8.84989C6.52524 9.27502 6.69845 9.72078 6.62189 10.4037C6.58242 10.7543 6.43089 10.924 6.19953 11.0015C5.99708 11.0694 5.75117 11.0519 5.46757 11.0315C4.93787 10.9942 4.99586 11.0032 4.43261 11.0122C3.68072 11.0243 2.92273 11.0365 2.22169 10.9422C2.03954 10.9179 1.87502 10.8668 1.72869 10.7925C0.791447 10.3173 0.744418 9.00093 0.714527 8.09772C0.651781 6.21144 0.94094 4.8327 2.22315 3.369C2.64588 2.88652 3.13221 2.48621 3.6239 2.17232C6.64362 0.247829 10.9328 2.3052 11.626 4.88334C11.6657 5.03454 11.4788 5.14399 11.3674 5.03194C10.762 4.42235 9.80975 4.85861 9.0315 5.25758C8.46118 5.54991 8.15976 6.07771 8.14977 6.69566Z" fill="#D2E2C4"/>
<path d="M9.88369 7.64728C9.56155 7.11303 9.70329 6.37767 10.2437 6.04075C10.8315 5.67422 11.5455 5.97211 11.9026 6.50669C12.3449 7.14247 13.0689 8.1196 13.424 8.76526C13.7434 9.24606 13.7171 9.82223 13.3047 10.2346C13.2464 10.2926 13.1826 10.3447 13.1142 10.3901C12.6752 10.6201 12.3136 10.6912 11.8697 10.398C11.7715 10.3295 10.6388 8.67644 10.4677 8.43475C10.4247 8.37912 10.387 8.3234 10.3411 8.26885C10.1383 8.04622 10.0592 7.91118 9.88369 7.64728Z" fill="#D2E2C4"/>
<path d="M9.88369 7.64732C9.56155 7.11306 9.70329 6.3777 10.2437 6.04078C10.8315 5.67425 11.2365 6.28116 11.5936 6.81574C12.0359 7.45157 12.7598 8.42865 13.115 9.07435C13.4596 9.59309 13.3049 9.8781 13.0617 10.1942C12.6227 10.4242 12.261 10.4952 11.8172 10.202C11.719 10.1336 10.6388 8.67647 10.4677 8.43479C10.4247 8.37915 10.387 8.32343 10.3411 8.26888C10.1383 8.04625 10.0592 7.91121 9.88369 7.64732Z" fill="#D2E2C4"/>
<path d="M9.70883 8.53464L10.8359 10.2321C10.908 10.3405 10.9968 10.4517 11.0885 10.5529C11.144 10.6141 11.4981 10.9316 11.4981 10.9948C11.8185 11.4964 11.6981 12.1974 11.2116 12.543C10.6594 12.9376 9.92948 12.6597 9.56669 12.1487C9.10489 11.5371 8.41525 10.6094 8.02696 9.96983C8.01738 9.95635 8.00722 9.94209 7.99719 9.92471C7.33306 8.86965 8.57198 7.5978 9.66972 8.49411C9.68471 8.50479 9.69803 8.51835 9.70883 8.53464Z" fill="#D2E2C4"/>
<path d="M9.39981 8.84369L10.5268 10.5412C10.599 10.6496 10.6878 10.7608 10.7795 10.862C10.835 10.9232 11.1891 11.2407 11.1891 11.3039C11.5094 11.8055 11.6161 12.0556 11.1297 12.4011C10.5774 12.7959 9.84752 12.518 9.48477 12.0068C9.02297 11.3953 8.41525 10.6094 8.02696 9.96986C8.01737 9.95638 8.00722 9.94212 7.99719 9.92474C7.33306 8.86968 8.26296 7.90684 9.36066 8.8032C9.37569 8.81388 9.38901 8.8274 9.39981 8.84369Z" fill="#D2E2C4"/>
<path d="M6.78678 14.3237C6.62288 14.0238 6.45797 13.7244 6.29204 13.4256C6.11148 13.1006 5.96597 12.7777 5.793 12.4502C5.78087 12.4271 5.77478 12.4014 5.7753 12.3753C5.77581 12.3493 5.78292 12.3238 5.79595 12.3012C5.80897 12.2787 5.8275 12.2598 5.84981 12.2463C5.87211 12.2329 5.89745 12.2253 5.92348 12.2243C6.61864 12.1954 7.26486 11.9625 7.68772 11.3971C7.70263 11.3751 7.72294 11.3574 7.7467 11.3455C7.77046 11.3337 7.79687 11.3282 7.82338 11.3295C7.84988 11.3309 7.8756 11.339 7.89804 11.3532C7.92048 11.3674 7.93889 11.3871 7.95149 11.4105L8.89508 13.1619C9.20255 13.7505 9.08571 14.5397 8.47616 14.8807L8.46743 14.8859C7.85577 15.2211 7.10924 14.9119 6.78678 14.3237Z" fill="#D2E2C4"/>
<path d="M6.78678 14.3235C6.62288 14.0236 6.45797 13.7243 6.29204 13.4255C6.11148 13.1005 5.96597 12.7776 5.793 12.4501C5.78087 12.427 5.77478 12.4013 5.7753 12.3752C5.77581 12.3492 5.78292 12.3237 5.79595 12.3011C5.80897 12.2786 5.8275 12.2597 5.84981 12.2462C5.87211 12.2327 5.89745 12.2251 5.92348 12.2241C6.61864 12.1953 6.95585 12.2714 7.3787 11.706C7.3936 11.684 7.41391 11.6662 7.43767 11.6544C7.46144 11.6425 7.48786 11.637 7.51437 11.6384C7.54089 11.6397 7.56661 11.6479 7.58905 11.6621C7.61149 11.6763 7.62989 11.696 7.64248 11.7194L8.58602 13.4708C8.89353 14.0594 9.08571 14.5396 8.47616 14.8805L8.46743 14.8857C7.85577 15.221 7.10924 14.9118 6.78678 14.3235Z" fill="#D2E2C4"/>
<path d="M2.82908 20.0928C2.06456 20.0915 1.50285 19.563 1.50415 18.7914L1.51069 11.9443C1.5107 11.9035 1.52693 11.8643 1.55582 11.8354C1.58471 11.8065 1.62388 11.7903 1.66473 11.7903L4.01017 11.7922C4.09521 11.7922 4.16421 11.8612 4.16421 11.9462L4.15767 18.7947C4.15637 19.5621 3.59613 20.094 2.82908 20.0928Z" fill="#D2E2C4"/>
<path d="M2.82908 19.6292C2.06456 19.6279 1.50285 19.0994 1.50415 18.3279L1.51069 11.9443C1.5107 11.9035 1.52693 11.8643 1.55582 11.8354C1.58471 11.8065 1.62388 11.7903 1.66473 11.7903L3.54662 11.7922C3.63166 11.7922 3.70066 11.8612 3.70066 11.9462L3.69412 18.3311C3.69282 19.0985 3.59613 19.6305 2.82908 19.6292Z" fill="#D2E2C4"/>
</g>
<defs>
<clipPath id="clip0_49_694">
<rect width="14.3767" height="20.8015" fill="white"/>
</clipPath>
</defs>
</svg>
